<?xml version="1.0" standalone="no"?>
<!DOCTYPE svg PUBLIC "-//W3C//DTD SVG 20010904//EN"
 "http://www.w3.org/TR/2001/REC-SVG-20010904/DTD/svg10.dtd">
<svg version="1.0" xmlns="http://www.w3.org/2000/svg"
 width="512.000000pt" height="512.000000pt" viewBox="0 0 512.000000 512.000000"
 preserveAspectRatio="xMidYMid meet">
<metadata>
Created by potrace 1.14, written by Peter Selinger 2001-2017
</metadata>
<g transform="translate(0.000000,512.000000) scale(0.100000,-0.100000)"
fill="#000000" stroke="none">
<path d="M2124 5067 c184 -150 253 -225 281 -306 25 -74 20 -118 -18 -156 -60
-60 -134 -59 -187 2 l-32 37 6 91 c8 102 -4 172 -35 216 -30 42 -43 35 -19
-11 24 -47 25 -98 4 -165 -9 -27 -19 -74 -22 -104 l-7 -53 -92 -34 c-141 -50
-287 -129 -327 -175 -42 -50 -136 -231 -171 -331 l-27 -77 -82 -31 c-133 -51
-333 -116 -461 -150 -66 -18 -124 -36 -129 -41 -12 -11 9 -134 34 -202 58
-155 132 -202 352 -221 209 -19 528 -191 620 -335 33 -53 35 -78 8 -130 -27
-54 -96 -112 -315 -263 -104 -72 -233 -165 -285 -207 -430 -342 -740 -825
-740 -1153 0 -100 131 -248 285 -323 338 -163 730 -74 1192 268 145 108 234
186 457 405 l189 186 -7 111 c-7 140 -38 308 -77 433 -41 132 -144 337 -226
451 -87 121 -244 278 -358 360 -168 118 -393 213 -580 243 -64 11 -105 30
-105 49 0 4 7 15 16 23 14 14 83 16 608 16 386 0 613 -4 652 -11 119 -22 232
-95 309 -201 60 -81 87 -167 87 -283 0 -136 -40 -475 -98 -838 -14 -86 -24
-164 -22 -173 2 -12 14 -4 46 27 52 53 164 274 217 429 53 153 154 509 225
787 l61 242 -36 88 c-41 100 -194 399 -280 548 -169 295 -396 584 -592 758
-98 87 -257 197 -318 221 l-40 15 39 -32z"/>
<path d="M3380 1939 c-41 -11 -138 -51 -215 -89 -220 -108 -359 -206 -633
-449 -457 -403 -581 -495 -847 -622 -228 -109 -373 -144 -564 -137 -102 4
-141 10 -206 32 -113 39 -185 80 -261 149 -75 69 -116 125 -150 205 l-24 57 6
-50 c10 -77 51 -212 90 -292 117 -245 343 -460 618 -588 208 -98 527 -150 756
-125 246 27 453 86 840 240 312 124 564 214 710 253 98 26 133 31 235 32 113
0 123 -2 175 -29 30 -16 75 -45 99 -65 l44 -36 -16 31 c-43 84 -200 190 -317
215 -70 15 -234 7 -282 -14 -55 -23 -50 0 13 62 60 59 164 114 246 132 72 14
210 6 276 -17 26 -9 50 -14 53 -12 8 9 -61 88 -117 134 -101 84 -277 164 -360
164 -44 0 -35 15 24 39 150 60 338 62 500 6 37 -13 67 -21 67 -18 0 14 -77
108 -123 149 -57 51 -105 84 -182 122 l-50 26 40 9 c102 23 293 -11 418 -74
l57 -29 0 23 c0 36 -28 137 -55 195 -13 28 -20 52 -15 52 16 0 124 -136 174
-219 136 -226 181 -514 116 -756 -41 -153 -139 -332 -244 -444 -28 -30 -42
-49 -31 -43 31 16 146 140 197 212 85 120 144 265 169 414 17 100 6 321 -21
421 -45 166 -128 311 -251 439 -152 159 -338 261 -547 302 -110 21 -319 18
-412 -7z"/>
</g>
</svg>
